<?xml version="1.0" encoding="UTF-8"?>
<svg width="187px" height="48px" viewBox="48 0 187 48" version="1.1" xmlns="http://www.w3.org/2000/svg" xmlns:xlink="http://www.w3.org/1999/xlink">
    <g id="LiC-Logo"  fill="TOKEN_FILL_COLOR_1">
        <polyline points="54.7341772 31.5542151 54.7341772 13.9292151 57.4205522 13.9292151 57.4205522 29.5205206 65.443038 29.5205206 65.443038 31.5542151 54.7341772 31.5542151"></polyline>
        <polygon points="72.5822785 31.5542151 75.556962 31.5542151 75.556962 13.9292151 72.5822785 13.9292151"></polygon>
        <polyline points="80.9113924 31.5542151 80.9113924 13.9292151 91.6202532 13.9292151 91.6202532 15.8753934 83.4049165 15.8753934 83.4049165 22.0759916 90.3813412 22.0759916 90.3813412 24.021817 83.4049165 24.021817 83.4049165 31.5542151 80.9113924 31.5542151"></polyline>
        <polyline points="96.9746835 31.5542151 96.9746835 13.9292151 107.672392 13.9292151 107.672392 15.8753934 99.4658782 15.8753934 99.4658782 21.7375718 106.026001 21.7375718 106.026001 23.608232 99.4658782 23.608232 99.4658782 29.6087426 107.683544 29.6087426 107.673437 31.5542151 96.9746835 31.5542151"></polyline>
        <path d="M145.373721,31.5542151 C144.072694,31.5542151 142.882735,31.3351189 141.836343,30.9031369 C140.791379,30.4715001 139.887838,29.8614809 139.150721,29.0903311 C138.412532,28.3178011 137.83648,27.3827604 137.438279,26.3114315 C137.038293,25.2366522 136.835443,24.0359357 136.835443,22.7417151 C136.835443,21.4492197 137.050793,20.2474681 137.474707,19.1695835 C137.898264,18.0934241 138.501457,17.1563132 139.268574,16.3837833 C140.034262,15.6119434 140.966015,15.0036494 142.03705,14.5751178 C143.109513,14.1465862 144.308758,13.9292151 145.601571,13.9292151 C146.885455,13.9292151 148.033273,14.1317498 149.012882,14.5316436 C149.934636,14.9080751 150.752108,15.4076836 151.446013,16.0177027 L150.576757,17.205998 C150.523901,17.2760398 150.458904,17.3388359 150.384978,17.3905909 C150.329622,17.4299248 150.243554,17.4495917 150.129986,17.4495917 C150.007491,17.4495917 149.85571,17.3864505 149.678573,17.2622385 C149.456081,17.1066284 149.172162,16.9337666 148.834317,16.7474485 C148.488614,16.5573351 148.052201,16.3824031 147.536147,16.2271381 C147.014736,16.0708379 146.359402,15.9911352 145.589071,15.9911352 C144.693745,15.9911352 143.85913,16.1450201 143.109513,16.4483045 C142.355968,16.7529691 141.698847,17.2035828 141.155295,17.7877245 C140.614599,18.3691059 140.188542,19.0853954 139.88891,19.916581 C139.590348,20.7432812 139.438925,21.6935034 139.438925,22.7417151 C139.438925,23.7985527 139.597134,24.7560205 139.908552,25.5878963 C140.221041,26.4225322 140.658169,27.1388217 141.20815,27.7160627 C141.759202,28.2950289 142.415609,28.7428824 143.159154,29.0468568 C143.901272,29.3504863 144.709815,29.5043712 145.563715,29.5043712 C146.079768,29.5043712 146.548324,29.4771136 146.956167,29.4229433 C147.371153,29.368083 147.758996,29.2780293 148.110413,29.1548523 C148.460401,29.0323654 148.796104,28.8757202 149.107522,28.6890571 C149.417868,28.5037742 149.729286,28.2729468 150.033204,28.0041657 C150.159985,27.8941 150.282481,27.8378596 150.396406,27.8378596 C150.497117,27.8378596 150.580685,27.8751232 150.658183,27.955861 L151.708861,29.0578979 C151.01067,29.8297378 150.156414,30.4383769 149.167162,30.8675985 C148.117556,31.3233877 146.841171,31.5542151 145.373721,31.5542151"></path>
        <polyline points="168.175371 31.5542151 168.175371 23.5207158 158.457537 23.5207158 158.457537 31.5542151 155.873418 31.5542151 155.873418 13.9292151 158.457537 13.9292151 158.457537 21.8250881 168.175371 21.8250881 168.175371 13.9292151 170.746835 13.9292151 170.746835 31.5542151 168.175371 31.5542151"></polyline>
        <polyline points="176.101266 31.5542151 176.101266 13.9292151 186.798974 13.9292151 186.798974 15.8753934 178.592112 15.8753934 178.592112 21.7375718 185.152583 21.7375718 185.152583 23.608232 178.592112 23.608232 178.592112 29.6087426 186.810127 29.6087426 186.80002 31.5542151 176.101266 31.5542151"></polyline>
        <path d="M200.107746,31.5542151 C198.806688,31.5542151 197.616701,31.3351189 196.57064,30.9031369 C195.525651,30.4715001 194.621732,29.8614809 193.884596,29.0903311 C193.146747,28.3178011 192.570324,27.3831054 192.172114,26.3114315 C191.772118,25.2363071 191.56962,24.0355906 191.56962,22.7417151 C191.56962,21.4492197 191.784618,20.2474681 192.208899,19.1695835 C192.631752,18.0937692 193.235317,17.1566582 194.002452,16.3837833 C194.768873,15.6119434 195.700292,15.0033043 196.770995,14.5751178 C197.843484,14.1465862 199.042757,13.9292151 200.335958,13.9292151 C201.619516,13.9292151 202.767362,14.1317498 203.747352,14.5316436 C204.668771,14.9080751 205.486262,15.4076836 206.180184,16.0177027 L205.310907,17.205998 C205.258764,17.2756948 205.193408,17.3388359 205.119123,17.390936 C205.063767,17.4299248 204.97841,17.4495917 204.864126,17.4495917 C204.741627,17.4495917 204.5902,17.3864505 204.413059,17.2622385 C204.190204,17.1062834 203.906278,16.9334216 203.568425,16.7474485 C203.222714,16.5573351 202.785933,16.3820581 202.270581,16.2271381 C201.749158,16.0708379 201.094165,15.9911352 200.323458,15.9911352 C199.42811,15.9911352 198.593833,16.1450201 197.843484,16.4483045 C197.090277,16.7533141 196.432784,17.2039278 195.889576,17.7877245 C195.348867,18.3687608 194.922443,19.0850503 194.622446,19.916581 C194.324235,20.7436263 194.173165,21.6941935 194.173165,22.7417151 C194.173165,23.7982076 194.33102,24.7556755 194.642446,25.5878963 C194.954942,26.4225322 195.392438,27.1388217 195.942075,27.7160627 C196.493141,28.2950289 197.14992,28.7425373 197.893483,29.0468568 C198.635262,29.3504863 199.443825,29.5043712 200.297744,29.5043712 C200.81381,29.5043712 201.282734,29.4771136 201.69023,29.4229433 C202.105583,29.368083 202.493436,29.2780293 202.844504,29.1548523 C203.194143,29.0327105 203.529854,28.8757202 203.841636,28.6890571 C204.151633,28.5037742 204.463058,28.2736368 204.767698,28.0041657 C204.894125,27.8941 205.016624,27.8378596 205.130552,27.8378596 C205.231622,27.8378596 205.314835,27.8754682 205.393049,27.956206 L206.443038,29.0578979 C205.745188,29.8297378 204.890911,30.4380318 203.901279,30.8675985 C202.851647,31.3233877 201.575231,31.5542151 200.107746,31.5542151"></path>
        <path d="M223.443399,31.5542151 C223.280322,31.5542151 223.141655,31.5429227 223.030451,31.5203379 C222.925689,31.4995174 222.835166,31.4684633 222.760578,31.428234 C222.687685,31.3883577 222.626319,31.3410707 222.573429,31.2824912 C222.513419,31.2161482 222.458834,31.1427475 222.410691,31.0640534 L222.40391,31.052761 L216.97728,24.1495625 C216.893877,24.0362854 216.804371,23.9339478 216.715882,23.8506662 C216.619256,23.7603268 216.506018,23.6851617 216.379218,23.6265822 C216.254452,23.5690614 216.113074,23.5277735 215.958812,23.50413 C215.812348,23.4818981 215.640117,23.4702528 215.447544,23.4702528 L214.20904,23.4702528 L214.20904,31.5542151 L211.797468,31.5542151 L211.797468,13.9292151 L214.20904,13.9292151 L214.20904,21.6497027 L215.219033,21.6497027 C215.550611,21.6497027 215.828961,21.5995925 216.046962,21.500431 C216.268014,21.3995049 216.467368,21.2385879 216.639599,21.0215617 L221.889252,14.5054815 C222.056397,14.2859851 222.22456,14.1349489 222.391705,14.0534318 C222.560207,13.9712088 222.780242,13.9292151 223.046047,13.9292151 L225.015854,13.9292151 L219.097619,21.2015347 C218.933525,21.4132676 218.777229,21.5883001 218.629408,21.7259265 C218.48803,21.8579067 218.332073,21.9669491 218.165605,22.0498778 L217.731299,22.2661983 L218.183235,22.4391135 C218.401914,22.522748 218.601268,22.639554 218.775533,22.7867084 C218.953189,22.9373916 219.131523,23.1406552 219.304432,23.3915587 L225.481013,31.5542151 L223.443399,31.5542151"></path>
        <polygon points="113.037975 26.2667151 116.012658 26.2667151 116.012658 13.9292151 113.037975 13.9292151"></polygon>
        <path d="M131.342512,26.2667151 C131.147226,26.2667151 130.984901,26.2369204 130.860144,26.1776856 C130.733615,26.1184509 130.603543,26.0084941 130.472761,25.8524265 L124.011648,17.6737739 L124.085368,18.3984242 C124.108405,18.6218847 124.124354,18.8400246 124.13286,19.0471689 C124.141721,19.2564414 124.145619,19.4554276 124.145619,19.6380977 L124.145619,26.2667151 L121.962025,26.2667151 L121.962025,13.9292151 L123.307766,13.9292151 C123.425788,13.9292151 123.525381,13.9345356 123.603708,13.9451766 C123.669985,13.9540441 123.729173,13.9700055 123.779501,13.9934157 C123.829475,14.0161164 123.878739,14.0498128 123.926586,14.0930861 C123.982585,14.1441628 124.049216,14.2161667 124.124354,14.3073244 L130.653516,22.557981 L130.564556,21.811694 C130.535848,21.5715627 130.515646,21.3363971 130.504659,21.1122273 C130.492963,20.8880574 130.487292,20.6724004 130.487292,20.4702219 L130.487292,13.9292151 L132.670886,13.9292151 L132.670886,26.2667151 L131.342512,26.2667151"></path>
        <g id="Group-17" transform="translate(0.000000, 0.416715)">
            <polygon points="114.059587 30.6646107 131.08237 30.6646107 131.08237 28.553434 114.059587 28.553434"></polygon>
        </g>
        <polyline points="230.835443 14.2934204 229.631061 14.2934204 229.631061 16.8667151 229.070992 16.8667151 229.070992 14.2934204 227.860759 14.2934204 227.860759 13.9292151 230.835443 13.9292151 230.835443 14.2934204"></polyline>
        <path d="M235,13.9292151 L235,16.8667151 L234.633581,16.8667151 L234.633581,14.7763095 C234.633581,14.7449021 234.634453,14.7116827 234.636489,14.6763494 C234.638815,14.640714 234.641142,14.6044747 234.643468,14.5676314 L233.701829,16.3617804 C233.669259,16.4285212 233.618367,16.4620426 233.550318,16.4620426 L233.491284,16.4620426 C233.422944,16.4620426 233.372925,16.4285212 233.341517,16.3617804 L232.382139,14.5615915 C232.3897,14.6379961 232.393771,14.7092668 232.393771,14.7763095 L232.393771,16.8667151 L232.025316,16.8667151 L232.025316,13.9292151 L232.336773,13.9292151 C232.373705,13.9292151 232.401914,13.933141 232.422852,13.9406909 C232.442918,13.9482408 232.461821,13.9690784 232.480723,14.0032038 L233.426143,15.7623214 C233.444173,15.7976548 233.46133,15.8351021 233.477616,15.8746634 C233.493029,15.9145266 233.508151,15.9537859 233.522691,15.9933472 C233.550318,15.9130166 233.582307,15.8351021 233.61924,15.7602075 L234.54692,14.0032038 C234.564078,13.9690784 234.582399,13.9482408 234.603046,13.9406909 C234.623403,13.933141 234.651902,13.9292151 234.688835,13.9292151 L235,13.9292151"></path>
    </g>
</svg>