<?xml version="1.0" encoding="UTF-8"?>
<svg width="48px" height="48px" viewBox="0 0 48 48" version="1.1" xmlns="http://www.w3.org/2000/svg" xmlns:xlink="http://www.w3.org/1999/xlink">
    <g transform="translate(0.000000, 0.416715)" fill="TOKEN_FILL_COLOR_1">
        <path d="M36.7099101,21.1401809 L39.2093392,21.1401809 L23.1618166,36.9639074 L8.29335523,22.3030911 C7.0653401,21.0915694 6.38866453,19.4671923 6.38866453,17.7284755 C6.38866453,15.9897587 7.0653401,14.3653816 8.29335523,13.1548869 C9.52241194,11.9430229 11.1705284,11.275813 12.9328707,11.275813 C14.6962546,11.275813 16.3436767,11.9430229 17.5737749,13.1555716 L23.1618166,18.6657873 L41.7872336,0.301254339 L44.2974257,0.301254339 L33.1612692,11.281975 C33.1633524,11.281975 33.1650883,11.280948 33.1671715,11.280948 L30.1084174,14.2969147 C30.075087,14.3277248 30.0400207,14.3595619 30.0063432,14.392426 L23.7902326,20.5219248 L23.1618166,21.1401809 L16.3186789,14.392426 C15.4243145,13.5115994 14.2223387,13.0254845 12.9328707,13.0254845 C11.6444443,13.0254845 10.4428157,13.5115994 9.54845127,14.392426 C8.65512842,15.2722256 8.16420012,16.4570453 8.16420012,17.7284755 C8.16420012,18.9999057 8.65512842,20.1847254 9.54845127,21.065552 L23.1618166,34.4884868 L23.8759889,33.7846471 L23.8808495,33.7897821 L36.7099101,21.1401809" id="Fill-14"></path>
        <path d="M43.7280322,21.1401809 L23.1618166,41.4183636 L6.03487674,24.5299769 C4.20309618,22.7238202 3.19381148,20.3089928 3.19381148,17.7284755 C3.19381148,15.1486429 4.20309618,12.7331308 6.03487674,10.9269741 C7.86804606,9.12081744 10.3178269,8.12565112 12.9328707,8.12565112 C15.5493033,8.12565112 17.9990841,9.12081744 19.8319062,10.9280011 L23.1618166,14.2113311 L37.2695822,0.301254339 L39.7787327,0.301254339 L23.7902326,16.0674686 L23.1618166,16.6857247 L18.5778518,12.1645133 C17.0797219,10.689394 15.0753873,9.87634963 12.9328707,9.87634963 C10.7913956,9.87634963 8.78740825,10.688367 7.2892784,12.1645133 C5.79323169,13.6399749 4.96934707,15.6159295 4.96934707,17.7284755 C4.96934707,19.8410216 5.79323169,21.8169761 7.29031997,23.2924377 L23.1618166,38.9432853 L41.2174929,21.1401809 L43.7280322,21.1401809" id="Fill-15"></path>
        <path d="M48.2453364,21.1401809 L23.1618166,45.8728198 L3.77570386,26.7575473 C1.34085226,24.3567556 0,21.1501086 0,17.7284755 C0,14.3068424 1.34085226,11.10088 3.77570386,8.6994037 C6.21263861,6.29861202 9.46373663,4.97651628 12.9328707,4.97651628 C16.4020048,4.97651628 19.6544915,6.29861202 22.0910791,8.6994037 L23.1618166,9.75619023 L32.7508893,0.301254339 L35.2614286,0.301254339 L24.804378,10.6120264 L24.3797632,11.0313862 L23.7902326,11.6130124 L23.1618166,12.2312685 L20.8359831,9.93694283 C18.7351294,7.86616159 15.9280888,6.72584545 12.9328707,6.72584545 C9.93765256,6.72584545 7.1320008,7.86616159 5.0307999,9.93694283 C2.93064058,12.0077241 1.77449402,14.774129 1.77449402,17.7284755 C1.77449402,20.682822 2.93064058,23.4495693 5.0307999,25.5200082 L23.1618166,43.3984262 L45.7351443,21.1401809 L48.2453364,21.1401809" id="Fill-16"></path>
    </g>
</svg>